<?xml version="1.0" encoding="UTF-8" standalone="no"?>
<!-- Generator: Adobe Illustrator 16.0.4, SVG Export Plug-In . SVG Version: 6.00 Build 0)  -->

<svg
   xmlns:dc="http://purl.org/dc/elements/1.1/"
   xmlns:cc="http://creativecommons.org/ns#"
   xmlns:rdf="http://www.w3.org/1999/02/22-rdf-syntax-ns#"
   xmlns:svg="http://www.w3.org/2000/svg"
   xmlns="http://www.w3.org/2000/svg"
   xmlns:sodipodi="http://sodipodi.sourceforge.net/DTD/sodipodi-0.dtd"
   xmlns:inkscape="http://www.inkscape.org/namespaces/inkscape"
   version="1.1"
   id="Layer_1"
   x="0px"
   y="0px"
   width="264px"
   height="162px"
   viewBox="0 0 264 162"
   enable-background="new 0 0 264 162"
   xml:space="preserve"
   inkscape:version="0.48.2 r9819"
   sodipodi:docname="betafeatures-icon-VisualEditor-formulæ.svg"><metadata
   id="metadata3213"><rdf:RDF><cc:Work
       rdf:about=""><dc:format>image/svg+xml</dc:format><dc:type
         rdf:resource="http://purl.org/dc/dcmitype/StillImage" /></cc:Work></rdf:RDF></metadata><defs
   id="defs3211" /><sodipodi:namedview
   pagecolor="#ffffff"
   bordercolor="#666666"
   borderopacity="1"
   objecttolerance="10"
   gridtolerance="10"
   guidetolerance="10"
   inkscape:pageopacity="0"
   inkscape:pageshadow="2"
   inkscape:window-width="1858"
   inkscape:window-height="1041"
   id="namedview3209"
   showgrid="false"
   inkscape:zoom="22.627417"
   inkscape:cx="135.88745"
   inkscape:cy="103.49495"
   inkscape:window-x="56"
   inkscape:window-y="22"
   inkscape:window-maximized="0"
   inkscape:current-layer="Layer_1" />
<g
   id="g3120">
	<polygon
   fill="#FFFFFF"
   points="24.833,151.361 13.366,161.357 0.5,151.749 0.5,0.5 263.5,0.5 263.5,152.249 254.5,158.954    254.5,42.5 215.5,42.5 215.5,155.1 211.107,151.369 203.5,156.699 203.5,42.5 48.5,42.5 48.5,153.35 38.749,161.38  "
   id="polygon3122" />
	<g
   id="g3124">
		<path
   fill="#E5E5E5"
   d="M263,1v150.998l-8,5.96V43v-1h-1h-38h-1v1v111.02l-3.274-2.781l-0.589-0.498l-0.633,0.441L204,155.738V43    v-1h-1H49h-1v1v110.1l-9.257,7.66l-13.295-9.57l-0.645-0.463l-0.598,0.521l-10.864,9.47L1,151.499V1H263 M264,0H0v152l13.391,10    l11.474-10l13.891,10L49,153.6V43h154v114.66l8.078-5.66l4.922,4.18V43h38v116.95l10-7.45V0L264,0z"
   id="path3126" />
	</g>
</g>
<path
   fill="#E5E5E5"
   d="M203,157.66V43H49v110.6l2.145-1.6L63.7,162l13.809-10l14.229,10l12.972-10l12.973,10l13.811-10l12.136,10  l13.391-10l14.229,10l12.972-10l12.974,10L203,157.66z"
   id="path3128" />
<path
   id="Ellipse"
   fill="#E5E5E5"
   d="M11,36c0-7.732,6.268-14,14-14s14,6.268,14,14s-6.268,14-14,14S11,43.732,11,36z" />
<path
   fill="#E5E5E5"
   d="M254,159.95V43h-38v113.18l7.551,5.82l13.811-10l13.891,10L254,159.95z"
   id="path3131" />
<path
   fill="#E5E5E5"
   d="M38,107V72H13v35H38z"
   id="path3133" />
<path
   fill="#E5E5E5"
   d="M232.51,5h26v6h-26V5z"
   id="path3135" />
<rect
   x="208.51"
   y="5"
   fill="#E5E5E5"
   width="22"
   height="6"
   id="rect3137" />
<path
   fill="#E5E5E5"
   d="M142,6v4H50V6H142 M143,5H49v6h94V5L143,5z"
   id="path3139" />
<rect
   x="184.51"
   y="5"
   fill="#E5E5E5"
   width="22"
   height="6"
   id="rect3141" />
<rect
   x="161.51"
   y="5"
   fill="#E5E5E5"
   width="13"
   height="6"
   id="rect3143" />
<rect
   x="176.51"
   y="5"
   fill="#E5E5E5"
   width="6"
   height="6"
   id="rect3145" />
<rect
   x="153.51"
   y="5"
   fill="#E5E5E5"
   width="6"
   height="6"
   id="rect3147" />
<rect
   x="9"
   y="5"
   fill="#E5E5E5"
   width="32"
   height="6"
   id="rect3149" />
<path
   fill="#E5E5E5"
   stroke="#E5E5E5"
   d="M2,14.5h260"
   id="path3151" />
<rect
   x="52"
   y="7"
   fill="#E5E5E5"
   width="2"
   height="2"
   id="rect3153" />
<path
   fill="#E5E5E5"
   d="M38,59v-5H13v5H38z"
   id="path3155" />
<g
   id="g3157">
	<path
   fill="#E4E4E4"
   d="M202.957,157.619V42.958h-154v110.601l2.145-1.6l12.556,10l13.809-10l14.229,10l12.972-10l12.973,10   l13.811-10l12.136,10l13.391-10l14.229,10l12.973-10l12.973,10L202.957,157.619z"
   id="path3159" />
</g>
<g
   opacity="0.2"
   enable-background="new    "
   id="g3161">
	<rect
   x="48.04"
   y="42.041"
   fill="#4F89C8"
   width="156.085"
   height="21.667"
   id="rect3163" />
</g>
<g
   opacity="0.8"
   id="g3165">
	<rect
   x="58.957"
   y="72.292"
   fill="#CCCBCB"
   width="54"
   height="5.999"
   id="rect3167" />
</g>
<g
   opacity="0.3"
   enable-background="new    "
   id="g3169">
	<path
   fill="#9B9B9B"
   d="M189.957,84.293h-39v30h39V84.293z M163.609,97.336h1.402l8.701,8.604l4.725-2.834l7.117,5.943v0.025   h-31.148L163.609,97.336z"
   id="path3171" />
</g>
<g
   opacity="0.8"
   id="g3173">
	<rect
   x="58.957"
   y="123.293"
   fill="#CCCBCB"
   width="131"
   height="3"
   id="rect3175" />
</g>
<g
   opacity="0.8"
   id="g3177">
	<rect
   x="58.957"
   y="133.293"
   fill="#CCCBCB"
   width="104"
   height="3"
   id="rect3179" />
</g>
<g
   opacity="0.8"
   id="g3181">
	<rect
   x="58.957"
   y="89.293"
   fill="#CCCBCB"
   width="84"
   height="3"
   id="rect3183" />
</g>
<g
   opacity="0.8"
   id="g3185">
	<rect
   x="58.957"
   y="99.293"
   fill="#CCCBCB"
   width="84"
   height="3"
   id="rect3187" />
</g>
<g
   opacity="0.8"
   id="g3189">
	<rect
   x="58.957"
   y="109.293"
   fill="#CCCBCB"
   width="39"
   height="3"
   id="rect3191" />
</g>
<g
   opacity="0.4"
   id="g3193">
	<g
   id="g3195">
		<path
   fill="#9B9B9B"
   d="M58.957,48.291h25v10h-25V48.291z"
   id="path3197" />
	</g>
	<g
   id="g3199">
		<rect
   x="92.457"
   y="48.291"
   fill="#9B9B9B"
   width="10"
   height="10"
   id="rect3201" />
	</g>
	<g
   id="g3203">
		<rect
   x="109.457"
   y="48.291"
   fill="#9B9B9B"
   width="10"
   height="10"
   id="rect3205" />
	</g>
</g>

<g
   style="opacity:0.75000000000000000;fill:#222222;fill-opacity:1"
   id="math"
   transform="translate(129.3,41.6)">
   <path
   d="M 13.609,11.391 10.004,16.004 16,16 l 0,-1 1,0 0,3 -10,0 5,-6 -5,-6 10,0 0,3 -1,0 0,-2 -6,0 3.609,4.391"
   id="sigma"
   inkscape:connector-curvature="0"
   style="fill-rule:nonzero;stroke:none;fill:#222222;fill-opacity:1" />
</g></svg>