<?xml version="1.0" encoding="iso-8859-1"?>
<!-- Generator: Adobe Illustrator 15.1.0, SVG Export Plug-In . SVG Version: 6.00 Build 0)  -->
<!DOCTYPE svg PUBLIC "-//W3C//DTD SVG 1.1//EN" "http://www.w3.org/Graphics/SVG/1.1/DTD/svg11.dtd">
<svg version="1.1" xmlns="http://www.w3.org/2000/svg" xmlns:xlink="http://www.w3.org/1999/xlink" x="0px" y="0px" width="12px"
	 height="12px" viewBox="0 0 12 12" style="enable-background:new 0 0 12 12;" xml:space="preserve">
<g id="Icons" style="opacity:0.75;">
	<g id="remove-item">
		<rect id="minus" x="-30" y="5" style="fill-rule:evenodd;clip-rule:evenodd;" width="8" height="2"/>
	</g>
	<g id="add-item">
		<polygon id="plus" style="fill-rule:evenodd;clip-rule:evenodd;" points="-57,2 -59,2 -59,5 -62,5 -62,7 -59,7 -59,10 -57,10 
			-57,7 -54,7 -54,5 -57,5 		"/>
	</g>
	<g id="external">
		<polygon id="box" style="fill-rule:evenodd;clip-rule:evenodd;" points="-94,2 -91,2 -91,3 -93,3 -93,9 -87,9 -87,7 -86,7 -86,10 
			-94,10 		"/>
		<polygon id="arrow_13_" style="fill-rule:evenodd;clip-rule:evenodd;" points="-89.789,2 -86,2 -86,5.789 -87.421,4.368 
			-89.553,6.5 -90.5,5.553 -88.368,3.421 		"/>
	</g>
	<g id="secure">
		<path id="lock" style="fill-rule:evenodd;clip-rule:evenodd;" d="M-120,5h0.019V4.003c0.001-0.057,0.005-1.409-0.832-2.255
			c-0.434-0.438-0.998-0.66-1.679-0.66s-1.245,0.222-1.678,0.659c-0.837,0.847-0.833,2.199-0.832,2.251V5H-125c-0.553,0-1,0.447-1,1
			v3c0,0.553,0.447,1,1,1h5c0.553,0,1-0.447,1-1V6C-119,5.447-119.447,5-120,5z M-124.002,5V3.993c0-0.01,0.005-0.999,0.543-1.543
			c0.482-0.485,1.449-0.487,1.932-0.002c0.544,0.546,0.546,1.536,0.546,1.55V5H-124.002z"/>
	</g>
	<g id="down">
		<polygon id="arrow_4_" style="fill-rule:evenodd;clip-rule:evenodd;" points="-157.977,3 -154.488,8.953 -151,3 		"/>
	</g>
	<g id="up">
		<polygon id="arrow_7_" style="fill-rule:evenodd;clip-rule:evenodd;" points="-186.488,2.006 -190,8 -182.976,8 		"/>
	</g>
	<g id="parameter-set">
		<g id="offset_box_1_">
			<g>
				<path style="fill-rule:evenodd;clip-rule:evenodd;" d="M-53.496-26.981h-3.987c-0.998,0-1.496,0.498-1.496,1.494v2.991
					c0,0.998,0.498,1.496,1.496,1.496h3.987C-52.498-21-52-21.498-52-22.496v-2.991C-52-26.483-52.498-26.981-53.496-26.981z
					 M-52.998-22.496c0,0.234-0.259,0.498-0.498,0.498h-2.991V-26h2.991c0.239,0,0.498,0.279,0.498,0.513V-22.496z"/>
			</g>
		</g>
		<path id="box_behind" style="fill-rule:evenodd;clip-rule:evenodd;" d="M-60.484-26.487c0-0.996,0.504-1.513,1.502-1.513h3.912
			c-0.153-0.655-0.616-1-1.426-1h-3.987c-0.998,0-1.496,0.498-1.496,1.494v2.991c0,0.998,0.498,1.496,1.496,1.496L-60.484-26.487z"
			/>
		<path id="box_behind_1_" style="fill-rule:evenodd;clip-rule:evenodd;" d="M-63.484-28.487c0-0.996,0.504-1.513,1.502-1.513h3.912
			c-0.153-0.655-0.616-1-1.426-1h-3.987c-0.998,0-1.496,0.498-1.496,1.494v2.991c0,0.998,0.498,1.496,1.496,1.496L-63.484-28.487z"
			/>
	</g>
	<g id="parameter_1_">
		<g id="offset_box">
			<g>
				<path style="fill-rule:evenodd;clip-rule:evenodd;" d="M-86-32h-8c-2,0-3,1-3,3v6c0,2,1,3,3,3h8c2,0,3-1,3-3v-6
					C-83-31-84-32-86-32z M-85-23c0,0.469-0.521,1-1,1h-6v-8h6c0.479,0,1,0.531,1,1V-23z"/>
			</g>
		</g>
	</g>
	<g id="parameter-big">
		<g>
			<path style="fill-rule:evenodd;clip-rule:evenodd;" d="M-116-34h-12c-2-0.007-3,0.993-3,2.993l0.014,9.007
				C-131-20-130-19.012-128-19h12c2-0.012,2.994-1,3-3.006v-9.001C-113.006-33.007-114-34.007-116-34z M-115-23c0,1.542-0.438,2-2,2
				h-8v-11.007l8,0.007c1.521,0,2,0.479,2,2V-23z"/>
		</g>
	</g>
	<g id="template">
		<path id="puzzel_piece" style="fill-rule:evenodd;clip-rule:evenodd;" d="M-146.54-27.583c-0.351-0.404-1.641-0.501-1.983-0.162
			c-0.769,0.758-1.926,1.308-1.952,0.162c0.088-2.081,0.818-3.743,0.818-3.743c0-0.252-0.207-0.456-0.463-0.456
			c0,0-1.586-0.111-3.59-0.164l-1.25-0.001c-0.127,0.406,0.274,1.09,0.782,1.604c0.339,0.344,0.242,1.633-0.162,1.984
			c-0.393,0.34-1.197,0.539-1.662,0.539c-0.445,0-1.222-0.158-1.612-0.479c-0.438-0.357-0.332-1.688,0.021-2.045
			c0.47-0.476,0.838-1.185,0.721-1.606h-0.484c-2.074,0.05-3.514,0.167-3.514,0.167c-0.255,0-0.463,0.204-0.463,0.456
			c0,0-0.558,2.58-0.558,5.348c0,2.762,0.558,5.331,0.558,5.331c0,0.253,0.208,0.457,0.463,0.457c0,0,2.615,0.19,5.493,0.19
			c2.723,0,5.258-0.19,5.258-0.19c0.256,0,0.463-0.204,0.463-0.457c0,0-0.739-1.73-0.824-3.869c0.031-1.004,1.255-0.506,1.958,0.188
			c0.356,0.353,1.688,0.458,2.045,0.021c0.319-0.391,0.479-1.167,0.479-1.612C-146-26.386-146.199-27.19-146.54-27.583z"/>
	</g>
	<g id="template-big">
		<path id="puzzel_piece_1_" style="fill-rule:evenodd;clip-rule:evenodd;" d="M-176.676-28.537
			c-0.438-0.506-2.053-0.627-2.481-0.203c-0.962,0.948-2.411,1.636-2.442,0.203c0.11-2.604,1.023-4.684,1.023-4.684
			c0-0.315-0.259-0.57-0.579-0.57c0,0-1.983-0.14-4.491-0.205l-1.563-0.001c-0.159,0.508,0.342,1.363,0.979,2.007
			c0.424,0.43,0.303,2.043-0.203,2.482c-0.49,0.426-1.497,0.675-2.079,0.675c-0.557,0-1.528-0.198-2.017-0.599
			c-0.548-0.447-0.416-2.111,0.025-2.559c0.588-0.595,1.05-1.482,0.902-2.01h-0.605c-2.595,0.062-4.397,0.209-4.397,0.209
			c-0.317,0-0.579,0.255-0.579,0.57c0,0-0.697,3.229-0.697,6.69c0,3.455,0.697,6.67,0.697,6.67c0,0.316,0.262,0.571,0.579,0.571
			c0,0,3.272,0.238,6.873,0.238c3.406,0,6.577-0.238,6.577-0.238c0.32,0,0.579-0.255,0.579-0.571c0,0-0.923-2.165-1.031-4.841
			c0.039-1.256,1.571-0.633,2.45,0.234c0.445,0.441,2.111,0.573,2.559,0.025c0.399-0.488,0.599-1.46,0.599-2.017
			C-176-27.04-176.25-28.047-176.676-28.537z"/>
	</g>
	<g id="italic-a">
		<path style="fill-rule:evenodd;clip-rule:evenodd;" d="M-23.333-64h-1.372l-7,12H-30l2.333-4h4L-23-52h1.667L-23.333-64z
			 M-27.083-57l2.527-4.333L-23.833-57H-27.083z"/>
	</g>
	<g id="bold-a">
		<path style="fill-rule:evenodd;clip-rule:evenodd;" d="M-54-52h3l-5-12h-3l-5,12h3l1.25-3h4.5L-54-52z M-58.917-57l1.417-3.4
			l1.417,3.4H-58.917z"/>
	</g>
	<g id="italic-k">
		<path d="M-89.982-59.348L-85-64h-2l-5.309,5.234L-91-64h-1.5l-3,12h1.5l1.173-4.693l1.54-1.438C-91-54-88-52-88-52h2
			C-86-52-90-54-89.982-59.348z"/>
	</g>
	<g id="bold-f">
		<polygon id="f" style="fill-rule:evenodd;clip-rule:evenodd;" points="-118,-62 -118,-64 -126,-64 -126,-52 -123,-52 -123,-57 
			-119,-57 -119,-59 -123,-59 -123,-62 		"/>
	</g>
	<g id="italic-i">
		<polygon id="i_2_" style="fill-rule:evenodd;clip-rule:evenodd;" points="-153.5,-52.001 -153.251,-52.995 -154.751,-52.995 
			-152.242,-63.032 -150.742,-63.032 -150.5,-63.999 -155.5,-63.999 -155.742,-63.032 -154.242,-63.032 -156.751,-52.995 
			-158.251,-52.995 -158.5,-52.001 		"/>
	</g>
	<g id="bold-b">
		<path id="b" style="fill-rule:evenodd;clip-rule:evenodd;" d="M-191-52h6c2,0,4-1,4-3c0-1.064,0.011-1.975-1.989-3
			c2-0.975,1.989-1.935,1.989-3c0-2-2-3-4-3h-6V-52z M-184-60c0,1.001,0,1-2,1c-1,0-2,0-2,0v-3c0,0,1,0,2,0c2,0,2,0,2,1
			C-184-60.001-184-61.001-184-60z M-186-54c-1,0-2,0-2,0v-3c0,0,1,0,2,0c2,0,2,0,2,1s0-0.001,0,1S-184-54-186-54z"/>
	</g>
	<g id="alert">
		<rect id="point" x="37" y="-86" style="fill-rule:evenodd;clip-rule:evenodd;" width="2" height="2"/>
		<polygon id="stroke" style="fill-rule:evenodd;clip-rule:evenodd;" points="39.516,-92 36.516,-92 37,-87 39,-87 		"/>
		<g id="triangle">
			<path d="M38.017-96.026L45.536-83h-15.04L38.017-96.026 M38.017-98.5c-0.544,0-1.088,0.357-1.5,1.071l-7.984,13.831
				c-0.825,1.429-0.15,2.598,1.5,2.598H46c1.65,0,2.325-1.169,1.5-2.599l-7.983-13.829C39.104-98.143,38.561-98.5,38.017-98.5
				L38.017-98.5z"/>
		</g>
	</g>
	<g id="settings">
		<path id="gear" style="fill-rule:evenodd;clip-rule:evenodd;" d="M14.869-88.524C14.948-89.006,15-89.496,15-90
			s-0.052-0.994-0.131-1.476l-2.463-0.259c-0.149-0.556-0.367-1.082-0.648-1.57l1.558-1.924c-0.576-0.806-1.281-1.511-2.087-2.087
			l-1.924,1.558c-0.488-0.281-1.015-0.499-1.57-0.648l-0.259-2.463C6.994-98.948,6.504-99,6-99s-0.994,0.052-1.476,0.131
			l-0.259,2.463c-0.556,0.149-1.082,0.367-1.57,0.648l-1.924-1.558c-0.806,0.576-1.511,1.281-2.087,2.087l1.558,1.924
			c-0.281,0.488-0.499,1.015-0.648,1.57l-2.463,0.259C-2.948-90.994-3-90.504-3-90s0.052,0.994,0.131,1.476l2.463,0.259
			c0.149,0.556,0.367,1.082,0.648,1.57l-1.558,1.924c0.576,0.806,1.281,1.511,2.087,2.087l1.924-1.558
			c0.488,0.281,1.015,0.499,1.57,0.648l0.259,2.463C5.006-81.052,5.496-81,6-81s0.994-0.052,1.476-0.131l0.259-2.463
			c0.556-0.149,1.082-0.367,1.57-0.648l1.924,1.558c0.806-0.576,1.511-1.281,2.087-2.087l-1.558-1.924
			c0.281-0.488,0.499-1.015,0.648-1.57L14.869-88.524z M6-86.002c-2.209,0-3.998-1.789-3.998-3.998S3.791-93.998,6-93.998
			S9.998-92.209,9.998-90S8.209-86.002,6-86.002z"/>
	</g>
	<g id="help">
		<path id="circle" style="fill-rule:evenodd;clip-rule:evenodd;" d="M-25.999-99.915c-5.478,0-9.916,4.438-9.916,9.916
			c0,5.476,4.438,9.914,9.916,9.914c5.476,0,9.914-4.438,9.914-9.914C-16.085-95.477-20.523-99.915-25.999-99.915z M-25.998-81.915
			c-4.465,0-8.084-3.619-8.084-8.083c0-4.465,3.619-8.084,8.084-8.084c4.464,0,8.083,3.619,8.083,8.084
			C-17.915-85.534-21.534-81.915-25.998-81.915z"/>
		<g id="question_mark">
			<path id="top" style="fill-rule:evenodd;clip-rule:evenodd;" d="M-26.234-95.312c-2.5,0-3.219,2.188-3.219,2.188l1.411,0.854
				c0,0,0.298-0.791,0.901-1.229c0.516-0.375,1.625-0.625,2.219,0.125c0.701,0.885-0.17,1.587-1.078,2.719
				C-26.953-89.469-27-87-27-87h1.969c0,0,0.135-2.318,1.041-3.381c0.603-0.707,1.443-1.338,1.443-2.494
				S-23.734-95.312-26.234-95.312z"/>
			<rect id="bottom" x="-27" y="-86" style="fill-rule:evenodd;clip-rule:evenodd;" width="2" height="2"/>
		</g>
	</g>
	<g id="history">
		<path id="clock_hands" style="fill-rule:evenodd;clip-rule:evenodd;" d="M-52.74-86.924c0,0-2.385-1.935-4.005-3.062
			c0.72-2.397,1.702-6.559,1.702-6.559s-4.35,5.363-4.877,6.699c-0.463,1.168,1.459,2.209,2.346,1.678
			C-55.674-87.617-52.74-86.924-52.74-86.924z"/>
		<path id="arrow" style="fill-rule:evenodd;clip-rule:evenodd;" d="M-57.914-99.915c-5.478,0-9.916,4.438-9.916,9.916
			c0,1.783,0.476,3.454,1.301,4.898l-2.223,2.04h5.688v-5.219l-2.066,1.896c-0.55-1.088-0.866-2.312-0.866-3.615
			c0-4.465,3.619-8.084,8.084-8.084c4.464,0,8.083,3.619,8.083,8.084c0,4.464-3.619,8.083-8.083,8.083
			c-1.145,0-2.228-0.247-3.213-0.678l-0.833,1.634c1.235,0.557,2.602,0.874,4.045,0.874c5.476,0,9.914-4.438,9.914-9.914
			C-48-95.477-52.438-99.915-57.914-99.915z"/>
	</g>
	<g id="source_1_">
		<path id="open_1_" style="fill-rule:evenodd;clip-rule:evenodd;" d="M-96-84h3v-2h-1v-8h1v-2h-3V-84z"/>
		<path id="close_2_" style="fill-rule:evenodd;clip-rule:evenodd;" d="M-84-84h-3v-2h1v-8h-1v-2h3V-84z"/>
	</g>
	<g id="source-big">
		<path id="open" style="fill-rule:evenodd;clip-rule:evenodd;" d="M-129-83h4v-2h-2v-11h2v-2h-4V-83z"/>
		<path id="close_1_" style="fill-rule:evenodd;clip-rule:evenodd;" d="M-115-83h-4v-2h2v-11h-2v-2h4V-83z"/>
	</g>
	<g id="comment">
		<path id="speech_bubble" style="fill-rule:evenodd;clip-rule:evenodd;" d="M-183-96h-6c-1.657,0-3,1.344-3,3v4
			c0,1.656,1.343,3,3,3v3l3-3h3c1.657,0,3-1.344,3-3v-4C-180-94.656-181.343-96-183-96z"/>
	</g>
	<g id="outdent-list-rtl">
		<polygon id="arrow_11_" points="42,-121 40,-121 40,-124 42.052,-124 42.083,-126.06 46.795,-122.475 42,-118.921 		"/>
		<path id="bottom_line_4_" d="M30-117h16c0.553,0,1,0.447,1,1v1c0,0.553-0.447,1-1,1H30c-0.553,0-1-0.447-1-1v-1
			C29-116.553,29.447-117,30-117z"/>
		<path id="middle_line_4_" d="M30-124h7c0.553,0,1,0.447,1,1v1c0,0.553-0.447,1-1,1h-7c-0.553,0-1-0.447-1-1v-1
			C29-123.553,29.447-124,30-124z"/>
		<path id="top_line_4_" d="M30-131h16c0.553,0,1,0.447,1,1v1c0,0.553-0.447,1-1,1H30c-0.553,0-1-0.447-1-1v-1
			C29-130.553,29.447-131,30-131z"/>
	</g>
	<g id="outdent-list-ltr">
		<polygon id="arrow_5_" points="2,-121 4,-121 4,-124 1.948,-124 1.917,-126.06 -2.795,-122.475 2,-118.921 		"/>
		<path id="bottom_line_3_" d="M14-117H-2c-0.553,0-1,0.447-1,1v1c0,0.553,0.447,1,1,1h16c0.553,0,1-0.447,1-1v-1
			C15-116.553,14.553-117,14-117z"/>
		<path id="middle_line_3_" d="M14-124H7c-0.553,0-1,0.447-1,1v1c0,0.553,0.447,1,1,1h7c0.553,0,1-0.447,1-1v-1
			C15-123.553,14.553-124,14-124z"/>
		<path id="top_line_3_" d="M14-131H-2c-0.553,0-1,0.447-1,1v1c0,0.553,0.447,1,1,1h16c0.553,0,1-0.447,1-1v-1
			C15-130.553,14.553-131,14-131z"/>
	</g>
	<g id="indent-list-rtl">
		<polygon id="arrow_12_" points="-19,-118.921 -23.794,-122.448 -19.09,-126.047 -19.08,-124 -17,-124 -17,-121 -19,-121 		"/>
		<path id="bottom_line_5_" d="M-34-117h16c0.553,0,1,0.447,1,1v1c0,0.553-0.447,1-1,1h-16c-0.553,0-1-0.447-1-1v-1
			C-35-116.553-34.553-117-34-117z"/>
		<path id="middle_line_5_" d="M-34-124h7c0.553,0,1,0.447,1,1v1c0,0.553-0.447,1-1,1h-7c-0.553,0-1-0.447-1-1v-1
			C-35-123.553-34.553-124-34-124z"/>
		<path id="top_line_5_" d="M-34-131h16c0.553,0,1,0.447,1,1v1c0,0.553-0.447,1-1,1h-16c-0.553,0-1-0.447-1-1v-1
			C-35-130.553-34.553-131-34-131z"/>
	</g>
	<g id="indent-list-ltr">
		<polygon id="arrow_6_" points="-65,-118.921 -60.206,-122.448 -64.91,-126.047 -64.92,-124 -67,-124 -67,-121 -65,-121 		"/>
		<path id="bottom_line_2_" d="M-50-117h-16c-0.553,0-1,0.447-1,1v1c0,0.553,0.447,1,1,1h16c0.553,0,1-0.447,1-1v-1
			C-49-116.553-49.447-117-50-117z"/>
		<path id="middle_line_2_" d="M-50-124h-7c-0.553,0-1,0.447-1,1v1c0,0.553,0.447,1,1,1h7c0.553,0,1-0.447,1-1v-1
			C-49-123.553-49.447-124-50-124z"/>
		<path id="top_line_2_" d="M-50-131h-16c-0.553,0-1,0.447-1,1v1c0,0.553,0.447,1,1,1h16c0.553,0,1-0.447,1-1v-1
			C-49-130.553-49.447-131-50-131z"/>
	</g>
	<g id="number-list-rtl">
		<polygon id="_x33__1_" points="-84,-118 -84,-117 -82.007,-117 -81.977,-116 -83,-116 -83,-115 -82,-115 -82,-114 -84,-114 
			-84,-113 -81.977,-113 -81,-114.002 -81,-115.002 -81.956,-115.533 -81,-116.033 -81,-117.002 -82.007,-118 		"/>
		<polygon id="_x32__1_" points="-84,-125 -84,-124 -81.884,-124 -84,-121.813 -84,-120.002 -81,-120.064 -81,-121 -83.118,-121 
			-81,-123.188 -81,-124.22 -81.669,-125 		"/>
		<polygon id="_x31__1_" points="-82.007,-132 -82.655,-132 -83.983,-130.609 -83.952,-130 -82.926,-130 -82.995,-128 -84,-128 
			-84,-127 -81,-127 -81,-128 -82.038,-128 		"/>
		<path id="bottom_line_6_" d="M-98.001-117h11.002c0.552,0,0.999,0.447,0.999,1v1c0,0.553-0.447,1-0.999,1h-11.002
			c-0.552,0-0.999-0.447-0.999-1v-1C-99-116.553-98.553-117-98.001-117z"/>
		<path id="middle_line_6_" d="M-98.001-124h11.002c0.552,0,0.999,0.447,0.999,1v1c0,0.553-0.447,1-0.999,1h-11.002
			c-0.552,0-0.999-0.447-0.999-1v-1C-99-123.553-98.553-124-98.001-124z"/>
		<path id="top_line_6_" d="M-98.001-131h11.002c0.552,0,0.999,0.447,0.999,1v1c0,0.553-0.447,1-0.999,1h-11.002
			c-0.552,0-0.999-0.447-0.999-1v-1C-99-130.553-98.553-131-98.001-131z"/>
	</g>
	<g id="number-list-ltr">
		<polygon id="_x33_" points="-131,-118 -131,-117 -129.007,-117 -128.977,-116 -130,-116 -130,-115 -129,-115 -129,-114 -131,-114 
			-131,-113 -128.977,-113 -128,-114.002 -128,-115.002 -128.955,-115.533 -128,-116.033 -128,-117.002 -129.007,-118 		"/>
		<polygon id="_x32_" points="-131,-125 -131,-124 -128.883,-124 -131,-121.813 -131,-120.002 -128,-120.064 -128,-121 
			-130.118,-121 -128,-123.188 -128,-124.22 -128.668,-125 		"/>
		<polygon id="_x31_" points="-129.007,-132 -129.655,-132 -130.982,-130.609 -130.951,-130 -129.926,-130 -129.994,-128 -131,-128 
			-131,-127 -128,-127 -128,-128 -129.037,-128 		"/>
		<path id="bottom_line_1_" d="M-113.998-117H-125c-0.553,0-1,0.447-1,1v1c0,0.553,0.447,1,1,1h11.002c0.551,0,0.998-0.447,0.998-1
			v-1C-113-116.553-113.447-117-113.998-117z"/>
		<path id="middle_line_1_" d="M-113.998-124H-125c-0.553,0-1,0.447-1,1v1c0,0.553,0.447,1,1,1h11.002c0.551,0,0.998-0.447,0.998-1
			v-1C-113-123.553-113.447-124-113.998-124z"/>
		<path id="top_line_1_" d="M-113.998-131H-125c-0.553,0-1,0.447-1,1v1c0,0.553,0.447,1,1,1h11.002c0.551,0,0.998-0.447,0.998-1v-1
			C-113-130.553-113.447-131-113.998-131z"/>
	</g>
	<g id="bullet-list-rtl">
		<path id="bottom_dot_1_" d="M-147-124h1c0.552,0,1,0.447,1,1v1c0,0.553-0.448,1-1,1h-1c-0.552,0-1-0.447-1-1v-1
			C-148-123.553-147.552-124-147-124z"/>
		<path id="middle_dot_1_" d="M-147-117h1c0.552,0,1,0.447,1,1v1c0,0.553-0.448,1-1,1h-1c-0.552,0-1-0.447-1-1v-1
			C-148-116.553-147.552-117-147-117z"/>
		<path id="top_dot_1_" d="M-147-131h1c0.552,0,1,0.447,1,1v1c0,0.553-0.448,1-1,1h-1c-0.552,0-1-0.447-1-1v-1
			C-148-130.553-147.552-131-147-131z"/>
		<path id="bottom_line_7_" d="M-162-117h11c0.552,0,1,0.447,1,1v1c0,0.553-0.448,1-1,1h-11c-0.552,0-1-0.447-1-1v-1
			C-163-116.553-162.552-117-162-117z"/>
		<path id="middle_line_7_" d="M-162-124h11c0.552,0,1,0.447,1,1v1c0,0.553-0.448,1-1,1h-11c-0.552,0-1-0.447-1-1v-1
			C-163-123.553-162.552-124-162-124z"/>
		<path id="top_line_7_" d="M-162-131h11c0.552,0,1,0.447,1,1v1c0,0.553-0.448,1-1,1h-11c-0.552,0-1-0.447-1-1v-1
			C-163-130.553-162.552-131-162-131z"/>
	</g>
	<g id="bullet-list-ltr">
		<path id="bottom_dot" d="M-193-124h-1c-0.552,0-1,0.447-1,1v1c0,0.553,0.448,1,1,1h1c0.552,0,1-0.447,1-1v-1
			C-192-123.553-192.448-124-193-124z"/>
		<path id="middle_dot" d="M-193-117h-1c-0.552,0-1,0.447-1,1v1c0,0.553,0.448,1,1,1h1c0.552,0,1-0.447,1-1v-1
			C-192-116.553-192.448-117-193-117z"/>
		<path id="top_dot" d="M-193-131h-1c-0.552,0-1,0.447-1,1v1c0,0.553,0.448,1,1,1h1c0.552,0,1-0.447,1-1v-1
			C-192-130.553-192.448-131-193-131z"/>
		<path id="bottom_line" d="M-178-117h-11c-0.552,0-1,0.447-1,1v1c0,0.553,0.448,1,1,1h11c0.552,0,1-0.447,1-1v-1
			C-177-116.553-177.448-117-178-117z"/>
		<path id="middle_line" d="M-178-124h-11c-0.552,0-1,0.447-1,1v1c0,0.553,0.448,1,1,1h11c0.552,0,1-0.447,1-1v-1
			C-177-123.553-177.448-124-178-124z"/>
		<path id="top_line" d="M-178-131h-11c-0.552,0-1,0.447-1,1v1c0,0.553,0.448,1,1,1h11c0.552,0,1-0.447,1-1v-1
			C-177-130.553-177.448-131-178-131z"/>
	</g>
	<g id="outline-rtl">
		<path id="text_3_" style="fill-rule:evenodd;clip-rule:evenodd;" d="M45-147H31v-7h14V-147z"/>
		<path id="float_3_" style="fill-rule:evenodd;clip-rule:evenodd;" d="M39-162v6h6v-6H39z M40-161h4v4h-4V-161z"/>
	</g>
	<g id="outline-ltr">
		<path id="text_1_" style="fill-rule:evenodd;clip-rule:evenodd;" d="M-1-154h14v7H-1V-154z"/>
		<path id="float_1_" style="fill-rule:evenodd;clip-rule:evenodd;" d="M-1-162v6h6v-6H-1z M4-157H0v-4h4V-157z"/>
	</g>
	<g id="layout-rtl">
		<path id="text_2_" style="fill-rule:evenodd;clip-rule:evenodd;" d="M-33-147v-6h8v-9h6v15H-33z"/>
		<path id="float_2_" style="fill-rule:evenodd;clip-rule:evenodd;" d="M-33-162v6h6v-6H-33z M-32-161h4v4h-4V-161z"/>
	</g>
	<g id="layout-ltr">
		<path id="text" style="fill-rule:evenodd;clip-rule:evenodd;" d="M-65-147v-15h6v9h8v6H-65z"/>
		<path id="float" style="fill-rule:evenodd;clip-rule:evenodd;" d="M-57-162v6h6v-6H-57z M-52-157h-4v-4h4V-157z"/>
	</g>
	<g id="link">
		<path id="right" d="M-82.812-153.999c0,1.1-0.891,2.015-1.988,2.015l-4.195-0.015c0.539,1.088,0.964,1.999,1.998,1.999h3
			c1.656,0,2.998-2.343,2.998-4s-1.342-4-2.998-4h-3c-1.034,0-1.459,0.911-1.998,1.999l4.195-0.015
			C-83.703-156.016-82.812-155.099-82.812-153.999z"/>
		<path id="center" d="M-94-154c0,0.535,0.42,1,0.938,1h6.109c0.518,0,0.938-0.465,0.938-1c0-0.534-0.42-1-0.938-1h-6.109
			C-93.58-155-94-154.534-94-154z"/>
		<path id="left" d="M-97.184-154.001c0-1.1,0.891-2.015,1.988-2.015l4.195,0.015c-0.539-1.088-0.964-1.999-1.998-1.999h-3
			c-1.656,0-2.998,2.343-2.998,4s1.342,4,2.998,4h3c1.034,0,1.459-0.911,1.998-1.999l-4.195,0.015
			C-96.293-151.984-97.184-152.901-97.184-154.001z"/>
	</g>
	<g id="clear">
		<path id="circle_with_strike" style="fill-rule:evenodd;clip-rule:evenodd;" d="M-122.001-160.978
			c-3.853,0-6.977,3.124-6.977,6.978c0,3.853,3.124,6.978,6.977,6.978c3.854,0,6.979-3.125,6.979-6.978
			C-115.022-157.854-118.147-160.978-122.001-160.978z M-127.114-154c0-1.092,0.572-3.25,0.93-2.929l7.113,7.113
			c0.488,0.525-1.837,0.931-2.93,0.931C-124.826-148.886-127.114-151.176-127.114-154z M-117.816-151.071l-7.113-7.113
			c-0.445-0.483,1.837-0.931,2.929-0.931c2.827,0,5.115,2.289,5.115,5.114C-116.886-152.908-117.25-150.458-117.816-151.071z"/>
	</g>
	<g id="arched-arrow-ltr">
		<path id="arrow_3_" style="fill-rule:evenodd;clip-rule:evenodd;" d="M-146.075-151.063l-2.391-6.901l-1.48,2.329
			c-0.964-0.845-2.699-1.85-5.513-1.823c-4.887,0.046-6.524,4.244-6.524,4.244s2.753-2.639,6.925-1.949
			c1.729,0.286,3.007,1.206,3.675,1.791l-1.474,2.319L-146.075-151.063z"/>
	</g>
	<g id="arched-arrow-rtl">
		<path id="arrow_8_" style="fill-rule:evenodd;clip-rule:evenodd;" d="M-184.599-157.458c-2.814-0.027-4.549,0.978-5.513,1.823
			l-1.48-2.329l-2.391,6.901l6.782,0.009l-1.474-2.319c0.668-0.584,1.945-1.504,3.675-1.791c4.172-0.69,6.925,1.949,6.925,1.949
			S-179.712-157.412-184.599-157.458z"/>
	</g>
	<g id="inspector">
		<rect id="title" x="33" y="-188" width="10" height="1"/>
		<path id="window" d="M42-179h-8c-2.206,0-4-1.794-4-4v-6c0-2.206,1.794-4,4-4h8c2.206,0,4,1.794,4,4v6
			C46-180.794,44.206-179,42-179z M34-191c-1.103,0-2,0.897-2,2v6c0,1.103,0.897,2,2,2h8c1.103,0,2-0.897,2-2v-6
			c0-1.103-0.897-2-2-2H34z"/>
	</g>
	<g id="remove">
		<path id="trash_can" style="fill-rule:evenodd;clip-rule:evenodd;" d="M6-188H5v6h1V-188z M4-188H3v6h1V-188z M8-188H7v6h1V-188z
			 M8-192v-1H3v1H0v3h1v7.966l1,1.031v-0.074V-180h6.984L9-180.018v0.015l1-1.031V-189h1v-3H8z M9-181H2v-8h7V-181z M10-190H1v-1h9
			V-190z"/>
	</g>
	<g id="apply">
		<polygon id="check" style="fill-rule:evenodd;clip-rule:evenodd;" points="-18.938,-192.861 -20.582,-194 -29.133,-181.643 
			-32.587,-185.097 -34,-183.684 -28.979,-178.662 		"/>
	</g>
	<g id="close">
		<polygon id="x" style="fill-rule:evenodd;clip-rule:evenodd;" points="-51.283,-191.303 -52.697,-192.717 -58,-187.414 
			-63.303,-192.717 -64.717,-191.303 -59.414,-186 -64.717,-180.697 -63.303,-179.283 -58,-184.586 -52.697,-179.283 
			-51.283,-180.697 -56.586,-186 		"/>
	</g>
	<g id="move-rtl">
		<polygon id="arrow_9_" style="fill-rule:evenodd;clip-rule:evenodd;" points="-86.935,-180.214 -92.237,-185.517 
			-86.935,-190.819 -88.349,-192.233 -95.065,-185.517 -88.349,-178.8 		"/>
	</g>
	<g id="move-ltr">
		<polygon id="arrow_10_" style="fill-rule:evenodd;clip-rule:evenodd;" points="-125.065,-190.819 -119.763,-185.517 
			-125.065,-180.214 -123.651,-178.8 -116.935,-185.517 -123.651,-192.233 		"/>
	</g>
	<g id="collapse">
		<polygon id="arrow_1_" style="fill-rule:evenodd;clip-rule:evenodd;" points="-159.303,-182.286 -154,-187.588 -148.697,-182.286 
			-147.283,-183.7 -154,-190.417 -160.717,-183.7 		"/>
	</g>
	<g id="expand">
		<polygon id="arrow_2_" style="fill-rule:evenodd;clip-rule:evenodd;" points="-180.697,-189.717 -186,-184.414 -191.303,-189.717 
			-192.717,-188.303 -186,-181.586 -179.283,-188.303 		"/>
	</g>
	<polygon style="fill-rule:evenodd;clip-rule:evenodd;" points="1.105,7.473 2.527,6.05 4.428,7.952 9.238,1 10.895,2.148 4.635,11 
			"/>
</g>
<g id="Guides" style="display:none;">
</g>
</svg>
