<?xml version="1.0" encoding="iso-8859-1"?>
<!DOCTYPE svg PUBLIC "-//W3C//DTD SVG 1.1//EN" "http://www.w3.org/Graphics/SVG/1.1/DTD/svg11.dtd">
<svg version="1.1" opacity="0.75" xmlns="http://www.w3.org/2000/svg" xmlns:xlink="http://www.w3.org/1999/xlink"
	 x="0px" y="0px" width="24px" height="24px" viewBox="0 0 24 24">
<g id="help">
	<path id="circle" d="M12.001,2.085c-5.478,0-9.916,4.438-9.916,9.916
		c0,5.476,4.438,9.914,9.916,9.914c5.476,0,9.914-4.438,9.914-9.914C21.915,6.523,17.477,2.085,12.001,2.085z M12.002,20.085
		c-4.465,0-8.084-3.619-8.084-8.083c0-4.465,3.619-8.084,8.084-8.084c4.464,0,8.083,3.619,8.083,8.084
		C20.085,16.466,16.466,20.085,12.002,20.085z"/>
	<path id="question" d="M10.615,17.673h2.136v-1.727h-2.136V17.673z M14.545,7.709
		c-0.658-0.423-1.557-0.637-2.692-0.637c-0.911,0-1.845,0.141-2.8,0.419V9.07c0.936-0.413,1.765-0.621,2.489-0.621
		c1.123,0,1.683,0.433,1.683,1.3c0,0.583-0.343,1.244-1.034,1.984l-0.512,0.546c-0.71,0.764-1.063,1.521-1.063,2.27v0.195h2.136
		V14.15c0-0.454,0.074-0.826,0.221-1.113c0.144-0.287,0.444-0.637,0.893-1.053l0.482-0.445c0.793-0.727,1.188-1.426,1.188-2.096
		C15.535,8.71,15.204,8.132,14.545,7.709z"/>
</g>
</svg>
