<?xml version="1.0" encoding="iso-8859-1"?>
<!-- Generator: Adobe Illustrator 15.1.0, SVG Export Plug-In . SVG Version: 6.00 Build 0)  -->
<!DOCTYPE svg PUBLIC "-//W3C//DTD SVG 1.1//EN" "http://www.w3.org/Graphics/SVG/1.1/DTD/svg11.dtd">
<svg version="1.1" xmlns="http://www.w3.org/2000/svg" xmlns:xlink="http://www.w3.org/1999/xlink" x="0px" y="0px" width="24px"
	 height="24px" viewBox="0 0 24 24" style="enable-background:new 0 0 24 24;" xml:space="preserve">
<g id="Icons" style="opacity:0.75;">
	<g id="language-big">
		<path id="japanese" d="M18.498,9.4l0.334-0.722l1.277,0.497L19.887,9.62c0.813,0.335,1.352,0.576,1.609,0.724
			c0.41,0.258,0.76,0.63,1.055,1.112c0.261,0.479,0.392,1.036,0.392,1.665c0,0.964-0.372,1.813-1.113,2.557
			c-0.738,0.775-2.036,1.295-3.887,1.554c-0.148-0.443-0.315-0.833-0.499-1.166c1.183-0.186,2.019-0.407,2.501-0.665
			c0.554-0.261,0.96-0.593,1.22-1.002c0.258-0.37,0.39-0.814,0.39-1.332c0-0.592-0.166-1.112-0.502-1.557
			c-0.406-0.407-0.981-0.721-1.721-0.943c-0.407,0.776-0.798,1.369-1.169,1.777c-0.294,0.407-0.849,1.109-1.662,2.11
			c0.111,0.48,0.22,0.87,0.33,1.166l-1.275,0.445l-0.113-0.611c-0.518,0.443-0.981,0.758-1.388,0.944
			c-0.444,0.184-0.814,0.277-1.11,0.277c-0.37,0-0.704-0.165-1.002-0.499c-0.295-0.37-0.443-0.835-0.443-1.39
			c0-0.74,0.165-1.405,0.501-2c0.295-0.554,0.74-1.092,1.334-1.609c0.332-0.297,0.887-0.648,1.666-1.057
			c0-0.333,0.035-0.979,0.112-1.945c-0.633,0.039-1.132,0.058-1.502,0.058c-0.48,0-0.87-0.019-1.167-0.058l-0.056-1.274
			c0.888,0.107,1.833,0.165,2.833,0.165c0-0.185,0.091-0.906,0.278-2.166l1.443,0.221c-0.184,0.668-0.313,1.279-0.391,1.834
			c0.298-0.036,0.669-0.092,1.113-0.166c0.446-0.073,0.702-0.112,0.777-0.112s0.797-0.185,2.166-0.555l0.057,1.277
			c-1.186,0.298-2.629,0.537-4.332,0.723c-0.074,0.813-0.111,1.333-0.111,1.557C17.034,9.491,17.794,9.4,18.498,9.4z M15.22,14.177
			c-0.074-0.593-0.167-1.536-0.277-2.834c-0.703,0.519-1.277,1.057-1.721,1.612c-0.372,0.518-0.556,1.073-0.556,1.664
			c0,0.298,0.053,0.539,0.166,0.723c0.111,0.112,0.239,0.167,0.39,0.167C13.665,15.509,14.332,15.064,15.22,14.177z M16.164,10.789
			c0,0.591,0.036,1.332,0.113,2.22c0.74-1.109,1.295-1.96,1.665-2.554C17.238,10.529,16.646,10.642,16.164,10.789z"/>
		<path id="english" style="fill-rule:evenodd;clip-rule:evenodd;" d="M8.642,16.931h2.269L7.128,6.083h-2.27l-3.78,10.848h2.269
			l0.685-2.169h3.938L8.642,16.931z M4.359,13l1.635-4.75L7.643,13H4.359z"/>
	</g>
</g>
<g id="Guides" style="display:none;">
</g>
</svg>
