<?xml version="1.0" encoding="iso-8859-1"?>
<!-- Generator: Adobe Illustrator 16.0.0, SVG Export Plug-In . SVG Version: 6.00 Build 0)  -->
<!DOCTYPE svg PUBLIC "-//W3C//DTD SVG 1.1//EN" "http://www.w3.org/Graphics/SVG/1.1/DTD/svg11.dtd">
<svg version="1.1" xmlns="http://www.w3.org/2000/svg" xmlns:xlink="http://www.w3.org/1999/xlink" x="0px" y="0px" width="24px"
	 height="24px" viewBox="0 0 24 24" style="enable-background:new 0 0 24 24;" xml:space="preserve">
<g id="Icons" style="opacity:0.75;">
	<polygon id="bookmark" points="12,15 16,15 16,21 14,19 12,21 	"/>
	<path d="M4,15c0,1,0,0,0,1s0.479,2,2,2c2,0,13.5,0,13.734,0s0.29-0.141,0.29-0.281S19.125,14,19.125,14s0.516,0,0.688,0
		C20.125,14,20,13.734,20,13.734l-2.947-7.6c0,0-0.068-0.134-0.209-0.134S7.359,6,7.172,6S6.944,6.149,6.944,6.149l-2.603,6.938
		C4,14.016,4,15,4,15z M11,7h5.922L19,13c0,0-5.112,0-9,0L11,7z M18.844,17H6c0,0-1,0-1-1s0,0,0-1s1-1,1-1h12.844
		c-0.078,0.125-0.156,0.5-0.156,1.5S18.766,16.875,18.844,17z"/>
</g>
<g id="Guides" style="display:none;">
</g>
</svg>
