<?xml version="1.0" encoding="iso-8859-1"?>
<!-- Generator: Adobe Illustrator 16.0.0, SVG Export Plug-In . SVG Version: 6.00 Build 0)  -->
<!DOCTYPE svg PUBLIC "-//W3C//DTD SVG 1.1//EN" "http://www.w3.org/Graphics/SVG/1.1/DTD/svg11.dtd">
<svg version="1.1" xmlns="http://www.w3.org/2000/svg" xmlns:xlink="http://www.w3.org/1999/xlink" x="0px" y="0px" width="24px"
	 height="24px" viewBox="0 0 24 24" style="enable-background:new 0 0 24 24;" xml:space="preserve">
<g id="Icons" style="opacity:0.75;">
	<g id="tag-big">
		<g>
			<path d="M21.738,12.545c0.389,0.389,0.389,1.025,0,1.414l-7.778,7.779c-0.389,0.389-1.025,0.389-1.414,0L3.707,12.9
				C3.318,12.512,3,11.743,3,11.193V4c0-0.55,0.45-1,1-1h7.193c0.55,0,1.318,0.318,1.707,0.707L21.738,12.545z M6.27,6.27
				c-0.73,0.73-0.73,1.918,0,2.651C7,9.652,8.188,9.652,8.922,8.922c0.73-0.73,0.729-1.919-0.001-2.652
				C8.187,5.54,7,5.539,6.27,6.27z"/>
		</g>
	</g>
</g>
<g id="Guides" style="display:none;">
</g>
</svg>
