<?xml version="1.0" encoding="iso-8859-1"?>
<!-- Generator: Adobe Illustrator 15.1.0, SVG Export Plug-In . SVG Version: 6.00 Build 0)  -->
<!DOCTYPE svg PUBLIC "-//W3C//DTD SVG 1.1//EN" "http://www.w3.org/Graphics/SVG/1.1/DTD/svg11.dtd">
<svg version="1.1" xmlns="http://www.w3.org/2000/svg" xmlns:xlink="http://www.w3.org/1999/xlink" x="0px" y="0px" width="24px"
	 height="24px" viewBox="0 0 24 24" style="enable-background:new 0 0 24 24;" xml:space="preserve">
<g id="Icons" style="opacity:0.75;">
	<g id="template-big">
		<path id="puzzel_piece_1_" style="fill-rule:evenodd;clip-rule:evenodd;" d="M21.324,9.463c-0.438-0.506-2.053-0.627-2.481-0.203
			c-0.962,0.948-2.411,1.636-2.442,0.203c0.11-2.604,1.023-4.684,1.023-4.684c0-0.315-0.259-0.57-0.579-0.57
			c0,0-1.983-0.14-4.491-0.205L10.79,4.003c-0.159,0.508,0.342,1.363,0.979,2.007c0.424,0.43,0.303,2.043-0.203,2.482
			c-0.49,0.426-1.497,0.675-2.079,0.675c-0.557,0-1.528-0.198-2.017-0.599C6.922,8.121,7.054,6.457,7.495,6.01
			C8.083,5.415,8.545,4.527,8.397,4H7.792C5.197,4.062,3.395,4.209,3.395,4.209c-0.317,0-0.579,0.255-0.579,0.57
			c0,0-0.697,3.229-0.697,6.69c0,3.455,0.697,6.67,0.697,6.67c0,0.316,0.262,0.571,0.579,0.571c0,0,3.272,0.238,6.873,0.238
			c3.406,0,6.577-0.238,6.577-0.238c0.32,0,0.579-0.255,0.579-0.571c0,0-0.923-2.165-1.031-4.841
			c0.039-1.256,1.571-0.633,2.45,0.234c0.445,0.441,2.111,0.573,2.559,0.025C21.801,13.07,22,12.099,22,11.542
			C22,10.96,21.75,9.953,21.324,9.463z"/>
	</g>
</g>
<g id="Guides" style="display:none;">
</g>
</svg>
