<?xml version="1.0" encoding="UTF-8"?>
<svg xmlns="http://www.w3.org/2000/svg" width="641" height="225" viewBox="72.5 191.5 641 225">
	<path fill="#2BA9E0" d="M144.765 242.56h13.097l-26.967 62.11h-4.085l-27.611-62.11h13.221l16.476 37.556zm28.358-25.682c1.991 0 3.69.687 5.106 2.059q2.126 2.056 2.127 5.043 0 2.922-2.127 5.042c-1.416 1.417-3.115 2.122-5.106 2.122q-2.787.001-4.913-2.155-2.123-2.157-2.122-5.009-.001-2.788 2.122-4.944c1.417-1.435 3.055-2.158 4.913-2.158m-5.972 25.682h12.076v61.047h-12.076zm26.543 56.668v-13.003c3.407 2.388 6.886 4.322 10.452 5.805q5.339 2.224 8.989 2.224 3.781 0 6.504-1.859 2.719-1.86 2.72-4.445-.001-2.656-1.76-4.415-1.757-1.758-7.596-5.076-11.682-6.504-15.295-11.114-3.62-4.613-3.619-10.055c0-4.689 1.826-8.513 5.473-11.481q5.479-4.442 14.105-4.442 8.958 0 18.382 5.04v11.947q-10.752-6.502-17.587-6.504-3.517 0-5.671 1.497-2.16 1.494-2.16 3.951-.002 2.128 1.953 4.052 1.955 1.927 6.866 4.645l4.315 2.456c10.175 5.749 15.268 12.119 15.268 19.105q0 7.498-5.874 12.305-5.871 4.81-15.098 4.81-5.442-.001-9.685-1.16c-2.831-.775-6.395-2.203-10.682-4.283m94.162 4.379v-7.829q-3.848 4.212-8.796 6.553-4.943 2.338-9.851 2.339-5.775 0-10.655-2.888c-3.251-1.922-5.703-4.531-7.364-7.831q-2.485-4.94-2.485-16.423V242.56h12.076v34.793q0 9.611 2.753 13.419 2.754 3.811 9.657 3.81 8.622.001 14.665-8.426V242.56h12.076v61.047zm67.416-36.694v25.947c0 2.078.711 3.118 2.123 3.118q2.194 0 6.838-3.252v7.366q-4.116 2.655-6.604 3.617-2.491.961-5.209.962-7.766 0-9.158-6.104-7.695 5.97-16.393 5.97-6.367 0-10.612-4.212-4.249-4.213-4.249-10.584c0-3.847 1.384-7.29 4.146-10.318s6.692-5.431 11.78-7.2l15.46-5.309v-3.252q.001-11.012-11.018-11.012-9.885 0-19.239 10.217V249.66c4.688-5.527 11.438-8.292 20.237-8.292q9.89 0 15.859 5.172 1.99 1.66 3.586 4.415 1.589 2.751 2.019 5.509c.294 1.833.434 5.316.434 10.449m-11.877 24.618v-18.115l-8.095 3.118q-6.17 2.456-8.726 4.944t-2.556 6.205q.002 3.781 2.424 6.17 2.42 2.39 6.269 2.391c3.85 0 7.407-1.57 10.684-4.713"/>
	<path fill="#9ACC59" d="M468.843 276.64h12.144v92.701h-25.811q-13.538 0-21.602-8.561-8.062-8.556-8.062-22.957-.001-13.469 8.462-22.167 8.459-8.69 21.598-8.691 6.106 0 13.271 2.588zm0 82.352v-38.689c-3.76-1.896-7.566-2.854-11.412-2.854-6.02 0-10.806 1.973-14.368 5.906q-5.34 5.902-5.342 15.927 0 9.423 4.646 14.532c1.857 2.032 3.826 3.407 5.904 4.112 2.081.706 5.817 1.064 11.217 1.064zm34.774-76.379q2.986-.001 5.105 2.057 2.123 2.058 2.122 5.042.001 2.921-2.122 5.042-2.119 2.124-5.105 2.123-2.789 0-4.913-2.153c-1.417-1.441-2.123-3.109-2.123-5.012 0-1.859.706-3.504 2.123-4.944q2.124-2.156 4.913-2.155m-5.976 25.679h12.08v61.049h-12.08zm20.97 9.69 22.692-22.298v12.608h19.311v10.886h-19.311v29.874q.001 10.468 8.692 10.468 6.509.001 13.737-4.312v11.28c-4.646 2.611-9.709 3.911-15.196 3.911-5.53 0-10.128-1.608-13.804-4.839a14 14 0 0 1-2.853-3.284c-.753-1.22-1.379-2.811-1.893-4.782-.508-1.967-.763-5.713-.763-11.247v-27.069h-10.616v-1.195zm83.013-9.824c9.29 0 17.013 3 23.159 8.996 6.146 5.995 9.225 13.524 9.225 22.589 0 8.81-3.121 16.114-9.355 21.931-6.236 5.822-14.092 8.727-23.561 8.727-9.152 0-16.811-2.946-22.956-8.856q-9.225-8.855-9.225-22.129c0-8.933 3.105-16.378 9.322-22.326q9.321-8.932 23.391-8.932m-.664 10.888c-5.793 0-10.551 1.901-14.264 5.704q-5.579 5.706-5.578 14.532c0 5.836 1.901 10.606 5.71 14.298q5.705 5.541 14.664 5.543 8.889.002 14.564-5.609c3.784-3.735 5.677-8.526 5.677-14.362 0-5.799-1.973-10.599-5.905-14.4q-5.91-5.707-14.868-5.706m59.394-10.754v14.001l.663-1.064c5.841-9.419 11.677-14.133 17.518-14.133q6.833.002 14.269 6.904l-6.372 10.617q-6.303-5.972-11.681-5.973c-3.892 0-7.262 1.858-10.119 5.572q-4.278 5.576-4.277 13.206v31.917h-12.146V308.29zm-273.098 50.247v11.635c.918.058 1.854.094 2.819.094 4.913 0 9.189-.525 12.843-1.591 3.647-1.062 7.333-2.833 11.046-5.308v-11.812c-6.721 4.955-14.066 7.437-22.029 7.437a24.5 24.5 0 0 1-4.679-.455m20.538-42.948q-7.235-8.493-19.376-8.495c-.396 0-.771.041-1.162.056v10.475c.386-.02.767-.043 1.162-.043q6.503 0 10.35 3.915c2.564 2.612 4.006 6.325 4.315 11.149h-15.827v7.229h27.771v-1.524q.002-14.263-7.233-22.762"/>
	<path fill="#2BA9E0" d="M375.18 210.906h12.076v190.188H375.18z"/>
</svg>
