<svg xmlns="http://www.w3.org/2000/svg" viewBox="72.5 191.5 730 225" height="225" width="730">
    <path d="M134.99 339.34l-28.42-64.12h13.58l16.94 38.64 16.52-38.64h13.3l-27.72 64.12z" style="fill:#2ba9e0"/>
    <path d="M225.98 319.88v12.04q-.84.7-1.82 1.26-.84.56-1.68.98-4.76 2.8-9.8 3.92-5.04 1.26-11.76 1.26-14.7 0-22.68-10.08-7.84-10.22-7.84-23.24 0-14.28 8.12-23.1 8.26-8.82 21.28-8.82 12.46 0 19.88 8.54 7.42 8.54 7.42 26.04l-44.24-.14q1.54 9.52 6.86 14.28t14.28 4.76q4.2 0 8.26-1.12 4.2-1.12 8.26-3.22 1.4-.7 2.66-1.54l2.8-1.68zm-42.84-19.6h31.64q-.28-7-4.2-11.2-3.92-4.2-10.5-4.2-7.14 0-11.48 4.06-4.2 4.06-5.46 11.48z" style="fill:#9acc59"/>
    <g style="fill:#999">
        <path d="M286.65 278.24v13.3q-4.2-2.66-7.41-3.92-3.22-1.4-6.3-1.82-.84-.14-1.82-.14-.84-.14-1.82-.14-8.54 0-13.86 5.88t-5.32 15.4q0 9.8 5.74 15.4 5.88 5.46 15.54 5.46h1.4q.7 0 1.54-.14 3.22-.28 6.44-1.26 3.35-1.12 7.27-2.8v12.17q-2.24 1.26-5.87 2.1-3.5.7-7.28 1.26-1.54.14-2.94.14-1.26.14-2.66.14-14 0-22.96-8.67-8.96-8.82-8.96-22.68 0-15.54 8.4-24.64 8.4-9.24 22.68-9.24 3.78 0 6.72.56 3.08.56 5.88 1.54 1.4.42 2.8.98t2.8 1.26z"/>
        <path d="M331.1 273.9q14.84.14 24.36 9.24 9.66 8.96 9.66 22.96 0 14.84-9.52 24.08-9.38 9.1-24.5 9.1-14.42 0-23.8-9.38t-9.38-23.8q0-13.58 9.52-22.82 9.66-9.24 23.66-9.24zm-.14 11.2q-8.82.14-14.56 6.02t-5.74 14.98q0 9.94 5.6 16.1 5.74 6.02 14.7 6.02 9.94 0 15.68-5.88t5.74-16.1q0-9.1-6.02-14.98-6.02-6.02-15.4-6.02z"/>
        <path d="M391.82 242.54v95.47h-12.46v-95.47z"/>
        <path d="M422.44 242.54v95.47h-12.46v-95.47z"/>
        <path d="M489.03 326.82v7.55q-2.93 2.1-4.9 3.08-1.95.98-3.77 1.4-.84.28-1.68.28-.7.14-1.68.14-4.06 0-6.44-1.4-2.24-1.54-3.08-4.9-4.06 3.22-8.4 4.76-4.2 1.54-8.54 1.54-6.86 0-11.2-4.62-4.2-4.61-4.2-10.63 0-8.4 5.74-12.32t12.6-6.44q.84-.28 1.54-.56.84-.28 1.54-.56l11.06-4.06v-3.36q0-5.74-2.8-8.26-2.8-2.66-8.54-2.66-.7 0-1.4.14h-1.12q-4.62.56-9.1 3.08-4.34 2.52-8.26 7.14v-13.72q3.64-4.2 8.82-6.3 5.18-2.1 12.04-2.1 9.52 0 16.1 5.04 6.72 4.9 6.72 15.68v32.2q0 1.96.56 2.66.7.7 1.82.7.98 0 2.66-.84 1.81-.98 3.91-2.52zm-21.41-1.54v-18.34q-7.98 2.8-14 6.02-5.88 3.22-5.88 8.82 0 3.92 2.52 6.44 2.52 2.38 6.44 2.38 2.94 0 5.6-1.4 2.8-1.4 5.32-3.78z"/>
        <path d="M512.1 242.54v37.1q4.05-2.8 8.25-4.2 4.34-1.4 9.1-1.4 11.76 0 19.46 8.96 7.7 8.82 7.7 22.4 0 15.96-8.96 24.92-8.82 8.95-24.64 8.95-1.26 0-2.52-.14-1.26 0-2.52-.14-5.04-.42-9.93-1.4-4.76-1.12-8.4-2.94v-92.1zm0 49v34.02q1.4.56 2.93.98l3.36.56q1.68.28 3.22.42 1.68.14 3.08.14 8.4 0 13.72-5.74 5.46-5.74 5.46-14.7 0-9.94-4.9-15.96-4.76-6.02-12.6-6.02-1.82 0-3.5.28t-3.22.98q-1.82.84-3.64 2.1-1.82 1.26-3.92 3.08z"/>
        <path d="M581.8 336.47v33.74h-12.45v-95.05h21.56q17.21.14 26.31 8.4 9.1 8.12 9.1 23.66 0 14.14-8.96 23.1-8.96 8.95-22.95 8.95H593q-.56 0-1.26-.14-2.38-.28-4.76-.84-2.38-.56-5.18-1.68zm0-50.11v38.92q1.97.98 3.93 1.68 1.96.56 3.92.98l1.96.28h1.96q8.67 0 14.27-6.02 5.74-6.02 5.74-15.12 0-9.8-5.18-15.12-5.04-5.46-15.25-5.46z"/>
        <path d="M688.9 326.82v7.55q-2.94 2.1-4.9 3.08-1.96.98-3.78 1.4-.84.28-1.68.28-.7.14-1.68.14-4.06 0-6.44-1.4-2.24-1.54-3.08-4.9-4.06 3.22-8.4 4.76-4.2 1.54-8.54 1.54-6.86 0-11.2-4.62-4.2-4.61-4.2-10.63 0-8.4 5.74-12.32t12.6-6.44q.84-.28 1.54-.56.84-.28 1.54-.56l11.06-4.06v-3.36q0-5.74-2.8-8.26-2.8-2.66-8.54-2.66-.7 0-1.4.14h-1.12q-4.62.56-9.1 3.08-4.34 2.52-8.26 7.14v-13.72q3.64-4.2 8.82-6.3 5.18-2.1 12.04-2.1 9.52 0 16.1 5.04 6.72 4.9 6.72 15.68v32.2q0 1.96.56 2.66.7.7 1.82.7.98 0 2.66-.84 1.82-.98 3.92-2.52zm-21.42-1.54v-18.34q-7.98 2.8-14 6.02-5.88 3.22-5.88 8.82 0 3.92 2.52 6.44 2.52 2.38 6.44 2.38 2.94 0 5.6-1.4 2.8-1.4 5.32-3.78z"/>
        <path d="M754.37 242.54v95.47h-26.46q-14 0-22.25-8.81-8.26-8.82-8.26-23.94 0-13.72 8.82-22.4 8.82-8.82 22.53-8.82h1.26q.56 0 1.26.14 2.52.14 5.04.7 2.52.56 5.6 1.68v-34.02zm-12.46 84.98v-40.04q-1.54-.56-3.08-.98-1.4-.42-2.66-.7-1.4-.28-2.94-.42-1.4-.14-2.94-.14-8.96 0-14.55 6.02-5.6 5.88-5.6 15.82 0 8.82 4.2 14.7 4.2 5.88 14.97 5.88z"/>
    </g>
</svg>
