<?xml version="1.0" encoding="UTF-8"?>
<svg xmlns="http://www.w3.org/2000/svg" width="641" height="225" viewBox="72.5 191.5 641 225">
    <path fill="#2BA9E0" d="M144.765 242.56h13.097l-26.967 62.11h-4.085l-27.611-62.11h13.221l16.476 37.556 15.869-37.556zm28.358-25.682c1.991 0 3.69.687 5.106 2.059 1.417 1.37 2.127 3.052 2.127 5.043 0 1.948-.71 3.628-2.127 5.042-1.416 1.417-3.115 2.122-5.106 2.122-1.858 0-3.496-.717-4.913-2.155-1.416-1.438-2.122-3.108-2.122-5.009 0-1.859.706-3.507 2.122-4.944 1.417-1.435 3.055-2.158 4.913-2.158zm-5.972 25.682h12.076v61.047h-12.076V242.56zm26.543 56.668v-13.003c3.407 2.388 6.886 4.322 10.452 5.805 3.559 1.482 6.556 2.224 8.989 2.224 2.522 0 4.688-.619 6.504-1.859 1.812-1.24 2.72-2.721 2.72-4.445 0-1.77-.588-3.243-1.76-4.415-1.172-1.172-3.703-2.864-7.596-5.076-7.789-4.336-12.886-8.04-15.295-11.114-2.415-3.076-3.619-6.426-3.619-10.055 0-4.689 1.826-8.513 5.473-11.481 3.653-2.962 8.354-4.442 14.105-4.442 5.972 0 12.1 1.68 18.382 5.04v11.947c-7.168-4.334-13.031-6.504-17.587-6.504-2.344 0-4.236.5-5.671 1.497-1.44.996-2.16 2.313-2.16 3.951 0 1.418.649 2.77 1.953 4.052 1.304 1.285 3.591 2.833 6.866 4.645l4.315 2.456c10.175 5.749 15.268 12.119 15.268 19.105 0 4.999-1.958 9.1-5.874 12.305-3.915 3.207-8.946 4.81-15.098 4.81-3.628 0-6.856-.388-9.685-1.16-2.831-.775-6.395-2.203-10.682-4.283zm94.162 4.379v-7.829c-2.565 2.807-5.497 4.993-8.796 6.553-3.294 1.558-6.58 2.339-9.851 2.339-3.85 0-7.402-.962-10.655-2.888-3.251-1.922-5.703-4.531-7.364-7.831-1.657-3.294-2.485-8.768-2.485-16.423V242.56h12.076v34.793c0 6.407.918 10.881 2.753 13.419 1.836 2.542 5.055 3.81 9.657 3.81 5.747 0 10.637-2.807 14.665-8.426V242.56h12.076v61.047h-12.076zm67.416-36.694v25.947c0 2.078.711 3.118 2.123 3.118 1.464 0 3.741-1.085 6.838-3.252v7.366c-2.743 1.769-4.946 2.977-6.604 3.617-1.661.64-3.397.962-5.209.962-5.177 0-8.231-2.035-9.158-6.104-5.13 3.981-10.594 5.97-16.393 5.97-4.244 0-7.783-1.403-10.612-4.212-2.832-2.808-4.249-6.337-4.249-10.584 0-3.847 1.384-7.29 4.146-10.318 2.763-3.028 6.692-5.431 11.78-7.2l15.46-5.309v-3.252c0-7.341-3.671-11.012-11.018-11.012-6.589 0-13.004 3.405-19.239 10.217V249.66c4.688-5.527 11.438-8.292 20.237-8.292 6.594 0 11.878 1.723 15.859 5.172 1.327 1.106 2.522 2.579 3.586 4.415 1.059 1.835 1.732 3.67 2.019 5.509.294 1.833.434 5.316.434 10.449zm-11.877 24.618v-18.115l-8.095 3.118c-4.113 1.638-7.022 3.285-8.726 4.944-1.704 1.659-2.556 3.728-2.556 6.205 0 2.521.81 4.577 2.424 6.17 1.614 1.593 3.703 2.391 6.269 2.391 3.85 0 7.407-1.57 10.684-4.713z"/>
    <path fill="#9ACC59" d="M468.843 276.64h12.144v92.701h-25.811c-9.025 0-16.227-2.853-21.602-8.561-5.374-5.704-8.062-13.356-8.062-22.957 0-8.979 2.819-16.368 8.462-22.167 5.639-5.793 12.839-8.691 21.598-8.691 4.07 0 8.495.863 13.271 2.588V276.64zm0 82.352v-38.689c-3.76-1.896-7.566-2.854-11.412-2.854-6.02 0-10.806 1.973-14.368 5.906-3.559 3.936-5.342 9.243-5.342 15.927 0 6.282 1.549 11.126 4.646 14.532 1.857 2.032 3.826 3.407 5.904 4.112 2.081.706 5.817 1.064 11.217 1.064l9.355.002zm34.774-76.379c1.99 0 3.693.684 5.105 2.057 1.416 1.371 2.122 3.054 2.122 5.042 0 1.948-.706 3.628-2.122 5.042-1.412 1.417-3.115 2.123-5.105 2.123-1.859 0-3.497-.718-4.913-2.153-1.417-1.441-2.123-3.109-2.123-5.012 0-1.859.706-3.504 2.123-4.944 1.416-1.438 3.054-2.155 4.913-2.155zm-5.976 25.679h12.08v61.049h-12.08v-61.049zm20.97 9.69l22.692-22.298v12.608h19.311v10.886h-19.311v29.874c0 6.979 2.899 10.468 8.692 10.468 4.339 0 8.918-1.436 13.737-4.312v11.28c-4.646 2.611-9.709 3.911-15.196 3.911-5.53 0-10.128-1.608-13.804-4.839a13.952 13.952 0 0 1-2.853-3.284c-.753-1.22-1.379-2.811-1.893-4.782-.508-1.967-.763-5.713-.763-11.247v-27.069h-10.616v-1.195h.004zm83.013-9.824c9.29 0 17.013 3 23.159 8.996 6.146 5.995 9.225 13.524 9.225 22.589 0 8.81-3.121 16.114-9.355 21.931-6.236 5.822-14.092 8.727-23.561 8.727-9.152 0-16.811-2.946-22.956-8.856-6.15-5.902-9.225-13.281-9.225-22.129 0-8.933 3.105-16.378 9.322-22.326 6.213-5.955 14.012-8.932 23.391-8.932zm-.664 10.888c-5.793 0-10.551 1.901-14.264 5.704-3.72 3.803-5.578 8.649-5.578 14.532 0 5.836 1.901 10.606 5.71 14.298 3.802 3.693 8.692 5.543 14.664 5.543 5.925 0 10.781-1.867 14.564-5.609 3.784-3.735 5.677-8.526 5.677-14.362 0-5.799-1.973-10.599-5.905-14.4-3.939-3.805-8.896-5.706-14.868-5.706zm59.394-10.754v14.001l.663-1.064c5.841-9.419 11.677-14.133 17.518-14.133 4.555 0 9.312 2.304 14.269 6.904l-6.372 10.617c-4.202-3.98-8.095-5.973-11.681-5.973-3.892 0-7.262 1.858-10.119 5.572-2.852 3.718-4.277 8.118-4.277 13.206v31.917h-12.146V308.29l12.145.002zM387.256 358.539v11.635c.918.058 1.854.094 2.819.094 4.913 0 9.189-.525 12.843-1.591 3.647-1.062 7.333-2.833 11.046-5.308v-11.812c-6.721 4.955-14.066 7.437-22.029 7.437a24.461 24.461 0 0 1-4.679-.455zm20.538-42.948c-4.824-5.661-11.281-8.495-19.376-8.495-.396 0-.771.041-1.162.056v10.475c.386-.02.767-.043 1.162-.043 4.335 0 7.785 1.304 10.35 3.915 2.564 2.612 4.006 6.325 4.315 11.149h-15.827v7.229h27.771v-1.524c0-9.509-2.409-17.095-7.233-22.762z"/>
    <path fill="#2BA9E0" d="M375.18 210.906h12.076v190.188H375.18V210.906z"/>
</svg>
