<?xml version="1.0" encoding="UTF-8"?>
<svg xmlns="http://www.w3.org/2000/svg" viewBox="72.5 191.5 400 225" height="225" width="400" id="Layer_1">
	<path d="M134.986 339.34l-28.42-64.12h13.58l16.94 38.64 16.52-38.64h13.3l-27.72 64.12z" fill="#2ba9e0"/>
	<path d="M225.98 319.88v12.04q-.84.7-1.82 1.26-.84.56-1.68.98-4.76 2.8-9.8 3.92-5.04 1.26-11.76 1.26-14.7 0-22.68-10.08-7.84-10.22-7.84-23.24 0-14.28 8.12-23.1 8.26-8.82 21.28-8.82 12.46 0 19.88 8.54 7.42 8.54 7.42 26.04l-44.24-.14q1.54 9.52 6.86 14.28t14.28 4.76q4.2 0 8.26-1.12 4.2-1.12 8.26-3.22 1.4-.7 2.66-1.54l2.8-1.68zm-42.84-19.6h31.64q-.28-7-4.2-11.2-3.92-4.2-10.5-4.2-7.14 0-11.48 4.06-4.2 4.06-5.46 11.48z" fill="#9acc59"/>
	<path d="M252.093 336.54v33.74h-12.46v-95.06h21.56q17.22.14 26.32 8.4 9.1 8.12 9.1 23.66 0 14.14-8.96 23.1t-22.96 8.96h-1.4q-.56 0-1.26-.14-2.38-.28-4.76-.84-2.38-.56-5.18-1.68zm0-50.12v38.92q1.96.98 3.92 1.68 1.96.56 3.92.98l1.96.28h1.96q8.68 0 14.28-6.02 5.74-6.02 5.74-15.12 0-9.8-5.18-15.12-5.04-5.46-15.26-5.46z" style="line-height:25px;-inkscape-font-specification:GillSans;text-align:start" fill="#999"/>
	<path d="M359.193 326.88v7.56q-2.94 2.1-4.9 3.08-1.96.98-3.78 1.4-.84.28-1.68.28-.7.14-1.68.14-4.06 0-6.44-1.4-2.24-1.54-3.08-4.9-4.06 3.22-8.4 4.76-4.2 1.54-8.54 1.54-6.86 0-11.2-4.62-4.2-4.62-4.2-10.64 0-8.4 5.74-12.32t12.6-6.44q.84-.28 1.54-.56.84-.28 1.54-.56l11.06-4.06v-3.36q0-5.74-2.8-8.26-2.8-2.66-8.54-2.66-.7 0-1.4.14h-1.12q-4.62.56-9.1 3.08-4.34 2.52-8.26 7.14V282.5q3.64-4.2 8.82-6.3 5.18-2.1 12.04-2.1 9.52 0 16.1 5.04 6.72 4.9 6.72 15.68v32.2q0 1.96.56 2.66.7.7 1.82.7.98 0 2.66-.84 1.82-.98 3.92-2.52zm-21.42-1.54V307q-7.98 2.8-14 6.02-5.88 3.22-5.88 8.82 0 3.92 2.52 6.44 2.52 2.38 6.44 2.38 2.94 0 5.6-1.4 2.8-1.4 5.32-3.78z" fill="#999"/>
	<path d="M424.676 242.6v95.48h-26.46q-14 0-22.26-8.82-8.26-8.82-8.26-23.94 0-13.72 8.82-22.4 8.82-8.82 22.54-8.82h1.26q.56 0 1.26.14 2.52.14 5.04.7 2.52.56 5.6 1.68V242.6zm-12.46 84.98v-40.04q-1.54-.56-3.08-.98-1.4-.42-2.66-.7-1.4-.28-2.94-.42-1.4-.14-2.94-.14-8.96 0-14.56 6.02-5.6 5.88-5.6 15.82 0 8.82 4.2 14.7 4.2 5.88 14.98 5.88z" fill="#999"/>
</svg>
